<svg id="Layer_1" data-name="Layer 1" xmlns="http://www.w3.org/2000/svg" width="99.984" height="100" viewBox="0 0 99.984 100">
  <g id="Group_1814" data-name="Group 1814" transform="translate(0 0)">
    <path id="Path_180" data-name="Path 180" d="M.07,212.541a3.436,3.436,0,0,1,2.832-2.15,83.7,83.7,0,0,1,12.11,0c3.227.352,3.014,4.077,3.757,6.6,5.644,19.147,27.6,28.565,45.537,19.651,1.432-.712,3.982-2.695,5.157-3.047a3.012,3.012,0,0,1,2.78.432,98.308,98.308,0,0,1,8.988,8.981c2.335,3.037-1.682,5.019-3.907,6.454a50.217,50.217,0,0,1-75.4-27.153L.07,214.3Zm12.5,3.709H6.516c2.877,15.732,15.132,28.982,30.367,33.6a44.649,44.649,0,0,0,25.1.29,49.214,49.214,0,0,0,12.305-5.569.442.442,0,0,0-.092-.392,41.533,41.533,0,0,0-4.1-4.052A38.307,38.307,0,0,1,12.57,216.253Z" transform="translate(-0.05 -157.636)"/>
    <path id="Path_181" data-name="Path 181" d="M214.3.01a51.63,51.63,0,0,1,13.413,3.872A50.249,50.249,0,0,1,249.85,76.676a32.881,32.881,0,0,1-3.2,4.517,2.706,2.706,0,0,1-3.647-.025,97.676,97.676,0,0,1-8.981-8.988,3.012,3.012,0,0,1-.432-2.78c.355-1.185,2.335-3.712,3.047-5.157,9.451-19.159-1.172-40.27-21.169-45.974-2.2-.627-4.747-.277-5.079-3.319a83.7,83.7,0,0,1,0-12.11,3.436,3.436,0,0,1,2.15-2.832c.575.04,1.192-.055,1.757,0Zm1.952,6.446V12.51a38.434,38.434,0,0,1,29.27,42.845,39.719,39.719,0,0,1-5.394,14.68,41.539,41.539,0,0,0,4.052,4.1.456.456,0,0,0,.392.092,44.8,44.8,0,0,0,4.447-39.893c-5.239-14.075-17.907-25.163-32.764-27.882Z" transform="translate(-157.636 0.01)"/>
    <path id="Path_182" data-name="Path 182" d="M44.736.07A3.409,3.409,0,0,1,46.885,2.9a83.336,83.336,0,0,1,0,12.11c-.367,3.257-3.9,2.964-6.446,3.712A32.731,32.731,0,0,0,18.618,40.655c-.762,2.64-.41,5.994-3.857,6.3a82.462,82.462,0,0,1-12.1-.025A3.439,3.439,0,0,1,.006,44.8c.037-.575-.055-1.19,0-1.757C1.9,23.431,19.378,4.9,38.522.985L42.978.07ZM41.026,6.516A43.845,43.845,0,0,0,6.455,41.088h6.054A38.171,38.171,0,0,1,41.026,12.57V6.516Z" transform="translate(0.012 -0.05)"/>
    <path id="Path_183" data-name="Path 183" d="M145.995,126.265h9.473a3.241,3.241,0,0,1,2.247,2.637c-.562,7.629.747,16.337.01,23.838a3.016,3.016,0,0,1-2.3,2.777l-35.706.052a3.086,3.086,0,0,1-3.024-2.64c.465-5.092-.607-11.258,0-16.22a4.291,4.291,0,0,1,.782-1.757,9.586,9.586,0,0,1,1.47-.875h9.473V120.7a9.588,9.588,0,0,1,.875-1.47,3.925,3.925,0,0,1,1.947-.787c3.864-.38,8.364.29,12.3.027A3.29,3.29,0,0,1,146,120.7v5.566Zm-5.859-1.952h-5.859V149.7h5.859Zm11.72,7.811H146V149.7h5.859Zm-23.438,7.814h-5.859V149.7h5.859v-9.766Z" transform="translate(-87.38 -88.744)"/>
  </g>
</svg>
