<svg id="Layer_1" data-name="Layer 1" xmlns="http://www.w3.org/2000/svg" width="99.955" height="100" viewBox="0 0 99.955 100">
  <g id="Group_1815" data-name="Group 1815" transform="translate(0)">
    <path id="Path_184" data-name="Path 184" d="M52.745,0l5.311.644c6.3.968,15.265,4.248,20.317,8.18a3.914,3.914,0,0,1-3.424,6.941c-1.822-.568-4.989-3.036-7.109-4.018C34.965-3.463-.476,27.085,9.565,61.869c7.106,24.617,34.742,37.144,58.142,26.447,1.754-.8,4.578-2.874,6.4-2.772a3.932,3.932,0,0,1,3.617,4.4c-.209,2.217-1.958,2.929-3.575,3.842a51.193,51.193,0,0,1-17.424,5.8,23.325,23.325,0,0,0-3.782.414H47.083a34.292,34.292,0,0,0-3.777-.419A50.158,50.158,0,0,1,1.092,60.194c-.322-1.568-.657-3.12-.84-4.725a60.809,60.809,0,0,1,0-10.938C2.17,20.756,23.657,1.311,47.083,0h5.659Z" transform="translate(-0.004)"/>
    <path id="Path_185" data-name="Path 185" d="M156.746,30.636a3.918,3.918,0,0,1,3.806,6.154L119.518,87.909c-4.871,5.395-10.65,4.8-15.8.2C97.2,82.305,91.273,75.788,84.684,70.05c-3.188-2.492-1.358-7.667,2.72-7.216,1.7.186,4.073,2.772,5.387,3.986,5.774,5.337,11.289,10.98,17.076,16.307a2.349,2.349,0,0,0,3.486-.016l41.1-51.252a4.354,4.354,0,0,1,2.29-1.222Z" transform="translate(-61.322 -22.58)"/>
    <path id="Path_186" data-name="Path 186" d="M331.78,132.047c3.976-.667,4.709,3.219,5.264,6.161a50.192,50.192,0,0,1-6.5,35.181c-.77,1.233-1.44,2.654-2.856,3.2a3.9,3.9,0,0,1-5.4-4.036c.144-1.445,1.725-3.28,2.424-4.609,4.879-9.281,6.237-17.532,4.719-27.975-.311-2.141-1.468-4.227-.1-6.274a4.037,4.037,0,0,1,2.453-1.646Z" transform="translate(-237.916 -97.428)"/>
  </g>
</svg>
