<svg id="Layer_1" data-name="Layer 1" xmlns="http://www.w3.org/2000/svg" width="99.887" height="100" viewBox="0 0 99.887 100">
  <path id="Path_189" data-name="Path 189" d="M89.252,59.05l-.023,31.306C86.921,103.706,72.194,99,62.6,99.855a3.128,3.128,0,0,1-3.018-2.838c-.5-7.762.665-16.352.008-24.017a4.826,4.826,0,0,0-3.64-4.363c-1.643-.432-10.61-.426-12.177.078A5.1,5.1,0,0,0,40.5,72.273c-.591,7.886.626,16.569-.039,24.359a3.123,3.123,0,0,1-2.836,3.215C27.9,99.018,12.739,103.761,10.779,90l.008-30.946H7.957c-5.989,0-10.317-9.317-6.5-14.117Q22.9,22.82,45.075,1.307a9.743,9.743,0,0,1,11,.841L97.924,44.036c3.634,4.666,2.142,11.936-3.462,14.267a13.676,13.676,0,0,1-2.378.745h-2.83ZM65.439,93.99H79.395c.082,0,1.332-.516,1.527-.62A4.908,4.908,0,0,0,83.394,89.6l.135-34.218c1.353-3.868,6.174-1.185,8.906-2.609a3.419,3.419,0,0,0,.528-5.531L52.658,6.928c-1.928-1.592-3.352-1.59-5.279,0L7.071,47.236A3.42,3.42,0,0,0,7.6,52.767c2.732,1.424,7.553-1.26,8.906,2.609l.151,34.593a5.112,5.112,0,0,0,2.584,3.468c.182.092,1.326.55,1.4.55H34.6V71.636c0-3.063,3.78-7.029,6.5-8.136,3.4-1.383,14.132-1.418,17.557-.113,3,1.142,6.781,5.1,6.781,8.445V93.986Z" transform="translate(-0.016 0.004)"/>
</svg>
