<svg id="Layer_1" data-name="Layer 1" xmlns="http://www.w3.org/2000/svg" width="84.775" height="100" viewBox="0 0 84.775 100">
  <path id="Path_187" data-name="Path 187" d="M46.694,99.915c-2.688.12-5.9.12-8.593,0A88.425,88.425,0,0,1,23.221,97.9C14.995,96.065.793,91.08.01,81.09L.017,19.622C.688,13.822,5.438,9.678,10.235,7c16.682-9.317,47.486-9.312,64.2-.068,4.792,2.652,9.895,7.025,10.354,12.876V80.9C84.034,91.077,69.971,96.038,61.574,97.9a89.186,89.186,0,0,1-14.88,2.013ZM41.77,6.5c-9.555.076-24.549,2.211-31.993,8.623s.391,12.213,6.707,14.963c13.913,6.059,35.417,6.1,49.592.893,7.461-2.742,18.06-9.053,7.943-16.619C65.982,8.35,51.6,6.422,41.77,6.5ZM78.332,32.009c-1.274.582-2.358,1.5-3.579,2.179-16.9,9.437-47.809,9.44-64.714,0-1.221-.682-2.307-1.6-3.579-2.179v9.464c0,3.393,6.2,6.871,8.914,8.07,14.337,6.34,39.392,6.323,53.773.12,2.938-1.267,9.185-4.694,9.185-8.385V32.009Zm0,20.1c-1.223.577-2.314,1.419-3.51,2.052-16.377,8.7-45.84,8.681-62.635,1.1L6.46,52.108v8.879c0,2.36,3.559,5.176,5.408,6.3C26.232,76.048,60.162,76.2,74.1,66.513c1.517-1.054,4.234-3.554,4.234-5.526Zm0,19.513c-1.049.5-1.974,1.225-2.994,1.791C59.1,82.4,29.559,82.425,12.715,75.031a50.719,50.719,0,0,1-6.257-3.407V80.5c0,3.27,5.342,6.458,7.938,7.681,14.76,6.959,41.239,6.959,56,0,2.581-1.216,7.938-4.415,7.938-7.681V71.623Z" transform="translate(-0.01 -0.005)"/>
</svg>
