<svg id="Layer_1" data-name="Layer 1" xmlns="http://www.w3.org/2000/svg" width="100.349" height="100" viewBox="0 0 100.349 100">
  <g id="Group_1828" data-name="Group 1828" transform="translate(0 0)">
    <path id="Path_216" data-name="Path 216" d="M0,273.048c.466-.591.879-1.536,1.706-1.722,1.874-.424,5.273.136,7.4-.045a5.657,5.657,0,0,0,2.327-.612c1.12-.869,2.138-6.658,3.093-8.27a2.514,2.514,0,0,1,4.321.128c.906,1.667,1.9,7.121,2.91,8.061a5.232,5.232,0,0,0,2.442.694c2.128.181,5.525-.379,7.4.044,1.327.3,1.96,2.214,1.555,3.434-.539,1.623-5.54,4.119-6.943,5.535a2.724,2.724,0,0,0-.654,2.756c.437,1.945,2.4,5.512,2.471,7.341s-1.727,2.745-3.392,2.4c-1.387-.291-5.007-3.831-6.7-4.661a2.3,2.3,0,0,0-2.677.076c-1.738.937-4.727,3.965-6.294,4.48-1.822.6-3.86-.424-3.661-2.471s2.033-5.122,2.452-7.16A2.717,2.717,0,0,0,7.1,280.3c-1.96-1.979-5.561-3.2-7.095-5.679V273.05Z" transform="translate(0 -192.864)"/>
    <path id="Path_217" data-name="Path 217" d="M76.894,39.233a22.175,22.175,0,1,1,28.215-.094,69.274,69.274,0,0,1,7.815,3.934c4.169,2.6,10.44,7.977,12.758,12.319a3.934,3.934,0,0,1-4.766,5.745c-1.646-.6-3.292-3.638-4.543-5.054a34.3,34.3,0,0,0-50.743-.393c-1.4,1.539-3.512,5.378-5.5,5.666-2.758.4-5.13-1.513-4.766-4.373.306-2.421,6.056-8.3,8.011-10.01A40.934,40.934,0,0,1,76.9,39.233ZM88.8,7.945c-4.975.563-9.877,4.873-11.374,9.586-3.968,12.484,9.139,23.394,20.56,17.035C111.495,27.045,105.109,6.1,88.8,7.945Z" transform="translate(-40.848 0.004)"/>
    <path id="Path_218" data-name="Path 218" d="M154.239,227.97a2.757,2.757,0,0,0-.61,2.531c.419,2,2.442,5.619,2.51,7.5s-1.947,2.866-3.68,2.293c-1.628-.539-4.567-3.653-6.415-4.556a2.624,2.624,0,0,0-1.369-.4c-1.657.055-5.559,3.968-7.341,4.821s-4.012-.092-3.939-2.162c.065-1.827,2.033-5.4,2.471-7.341a2.717,2.717,0,0,0-.654-2.756c-1.583-1.6-4.805-2.973-6.32-4.593-1.272-1.361-.856-3.973.932-4.376,1.874-.424,5.273.136,7.4-.044a5.657,5.657,0,0,0,2.327-.612c1.12-.869,2.138-6.658,3.093-8.27a2.516,2.516,0,0,1,4.321.128c.9,1.662,1.9,7.121,2.91,8.061a5.232,5.232,0,0,0,2.442.694c2.128.181,5.525-.379,7.4.044a2.022,2.022,0,0,1,.932.636c3.353,3.478-4.6,6.475-6.4,8.4Z" transform="translate(-94.616 -154.183)"/>
    <path id="Path_219" data-name="Path 219" d="M282.239,280.338a2.758,2.758,0,0,0-.61,2.531c.419,2,2.442,5.619,2.51,7.5s-1.947,2.866-3.68,2.293c-1.628-.539-4.567-3.654-6.415-4.556a2.623,2.623,0,0,0-1.369-.4c-1.657.055-5.559,3.968-7.341,4.821s-4.012-.092-3.939-2.162c.065-1.827,2.033-5.4,2.471-7.341a2.717,2.717,0,0,0-.654-2.756c-1.583-1.6-4.805-2.973-6.32-4.593-1.272-1.361-.856-3.973.932-4.376,1.874-.424,5.273.136,7.4-.044a5.657,5.657,0,0,0,2.327-.612c1.12-.869,2.138-6.658,3.093-8.27a2.508,2.508,0,0,1,4.321.128c.9,1.662,1.9,7.121,2.91,8.061a5.232,5.232,0,0,0,2.442.694c2.128.181,5.525-.379,7.4.044a2.022,2.022,0,0,1,.932.636c3.353,3.478-4.6,6.475-6.4,8.4Z" transform="translate(-189.117 -192.839)"/>
  </g>
</svg>
