<svg id="Layer_1" data-name="Layer 1" xmlns="http://www.w3.org/2000/svg" width="116.327" height="100" viewBox="0 0 116.327 100">
  <g id="Group_1823" data-name="Group 1823" transform="translate(0 0)">
    <path id="Path_199" data-name="Path 199" d="M116.276,87.916c-.09,1.012.125,2.2,0,3.181-.564,4.444-4.964,8.515-9.428,8.855-32.966-.186-66.011.393-98.934-.291A10.444,10.444,0,0,1,.481,86.457C16.776,58.385,33.637,30.522,50.768,2.965a10.678,10.678,0,0,1,14.756,0C82.56,30.112,98.839,57.82,115.372,85.3ZM57.867,7.548a3.865,3.865,0,0,0-2.405,1.7L8.147,87.762a3.013,3.013,0,0,0,2.643,4.708H105.5a3.013,3.013,0,0,0,2.643-4.708L60.83,9.249A3.451,3.451,0,0,0,57.867,7.548Z" transform="translate(0.01 -0.006)"/>
    <path id="Path_200" data-name="Path 200" d="M186.468,107.1c2.37-.308,5.639.744,5.965,3.455.73,6.066-.71,13.59-.7,19.758-.224,3.109.233,7.212-.233,10.216-.515,3.333-7.5,3.519-8.108.189a32.682,32.682,0,0,1-.044-3.818q-.445-8.38-.692-16.8c-.081-2.6-.718-7.747-.116-10.117.416-1.649,2.326-2.678,3.926-2.888Z" transform="translate(-129.275 -75.922)"/>
    <path id="Path_201" data-name="Path 201" d="M186.951,247.774c8.073-.433,7.009,12.415-.817,10.693C180.073,257.132,180.94,248.1,186.951,247.774Z" transform="translate(-129.065 -175.713)"/>
  </g>
</svg>
