<svg id="Layer_1" data-name="Layer 1" xmlns="http://www.w3.org/2000/svg" width="100.002" height="100" viewBox="0 0 100.002 100">
  <g id="Group_1832" data-name="Group 1832">
    <path id="Path_233" data-name="Path 233" d="M0,2.153A3.386,3.386,0,0,1,2.633,0L49.074.05l1.808,1.123L75.662,26a4.7,4.7,0,0,1,.9,2.808V47.259A26.453,26.453,0,0,1,79.96,99.2l-4.38.8H2.148A4.206,4.206,0,0,1,0,97.852Zm45.5,3.71H5.86V94.137H56.834a29.228,29.228,0,0,1-7.393-9.7A26.4,26.4,0,0,1,70.5,47.266V31.056H48.534c-1.05,0-3.028-1.308-3.028-2.44V5.863ZM66.207,25.2,51.364,10.16V25.2Zm5.428,27.791a20.61,20.61,0,1,0,19.8,30.736c8.188-14.465-3.333-32.248-19.8-30.736Z"/>
    <path id="Path_234" data-name="Path 234" d="M264.892,258.856h4.785c.065,0,1.065.285,1.215.348a2.947,2.947,0,0,1,0,5.36c-.15.06-1.15.348-1.215.348h-4.785V269.7c0,.065-.285,1.065-.348,1.215a2.947,2.947,0,0,1-5.36,0c-.06-.15-.348-1.15-.348-1.215v-4.785h-4.785c-.065,0-1.065-.285-1.215-.348a2.947,2.947,0,0,1,0-5.36c.15-.06,1.15-.348,1.215-.348h4.785v-4.785c0-.065.285-1.065.348-1.215a2.947,2.947,0,0,1,5.36,0c.06.15.348,1.15.348,1.215Z" transform="translate(-188.335 -188.35)"/>
  </g>
</svg>
