<svg id="Layer_1" data-name="Layer 1" xmlns="http://www.w3.org/2000/svg" width="70.204" height="100" viewBox="0 0 70.204 100">
  <g id="Group_1824" data-name="Group 1824" transform="translate(0)">
    <path id="Path_202" data-name="Path 202" d="M37.679,0C60.326,2.305,74.431,22.485,69.066,44.768c-4.813,20-20.84,37.3-31.693,54.242a3.018,3.018,0,0,1-4.47,0C17.946,76.033-14.281,42.155,7.131,13.882A36.036,36.036,0,0,1,32.6,0ZM35.331,91.792c6.678-10.135,14.393-19.707,20.35-30.335,7.158-12.77,12.84-27.1,4.81-41.01C49.3,1.06,20.969,1.068,9.786,20.448,2.151,33.683,6.894,47.2,13.554,59.573c6.1,11.34,14.215,21.447,21.375,32.1l.4.12Z" transform="translate(-0.002)"/>
    <path id="Path_203" data-name="Path 203" d="M86.048,70.278c14.3-1.388,24.29,14.065,16.92,26.49-7.308,12.315-25.743,11.125-31.3-2.062A17.671,17.671,0,0,1,86.051,70.281Zm.387,5.855c-14.933,1.7-12.8,24.687,2.483,23.38C104.261,98.2,102.181,74.341,86.436,76.133Z" transform="translate(-52.708 -52.643)"/>
  </g>
</svg>
