<svg xmlns="http://www.w3.org/2000/svg" width="100.262" height="100" viewBox="0 0 100.262 100">
  <g id="Layer_1" data-name="Layer 1" transform="translate(0 0)">
    <g id="Group_1833" data-name="Group 1833" transform="translate(0 0)">
      <path id="Path_235" data-name="Path 235" d="M.034,47.037c2.46-44.2,57.763-63.474,87.6-30.3L92.432,23V11.563A5.092,5.092,0,0,1,93.6,9.407a4.035,4.035,0,0,1,6.663,2.059V25.342a13.069,13.069,0,0,1-7.307,9.806c-3.459,1.547-13.274,1.491-17.267,1.146a3.908,3.908,0,0,1-3.454-5.61c.4-.893,1.882-2.213,2.871-2.213H86.557C74.67,8.318,47.713,1.471,27.731,14.2-7.255,36.477,7.177,90.258,48.085,92.192c2.027.1,4.44-.352,6.271-.2,4.24.355,5.2,6.024,1.469,7.52-1.165.468-2.029.088-3.131.49H47.213a34.3,34.3,0,0,0-3.789-.419C21.347,96.705,3.3,78.751.453,56.684A34.806,34.806,0,0,0,.034,52.9c.081-1.944-.108-3.924,0-5.862Z" transform="translate(0 0)"/>
      <path id="Path_236" data-name="Path 236" d="M144.326,60.491a3.876,3.876,0,0,1,4.528,3.39c-.526,10.308.774,21.435.029,31.648a4.608,4.608,0,0,1-1.373,3.123c-4.4,5.277-10.7,10-15.272,15.242a3.939,3.939,0,0,1-6.23-4.658l15-15.321.042-29.861a3.861,3.861,0,0,1,3.28-3.566Z" transform="translate(-94.812 -45.653)"/>
      <path id="Path_237" data-name="Path 237" d="M268.19,355.891a26.915,26.915,0,0,1,4.886-2.646,3.921,3.921,0,0,1,4.252,6.4,26,26,0,0,1-4.989,2.641,3.93,3.93,0,0,1-4.151-6.391Z" transform="translate(-201.725 -266.571)"/>
      <path id="Path_238" data-name="Path 238" d="M375.2,228.532a3.89,3.89,0,0,1,3.941,4.061,21.523,21.523,0,0,1-1.721,5.86c-1.784,2.626-6.35,1.863-6.969-1.185-.308-1.515.793-6.3,1.828-7.468a4.044,4.044,0,0,1,2.925-1.27Z" transform="translate(-279.729 -172.59)"/>
      <path id="Path_239" data-name="Path 239" d="M336.588,300.716a3.957,3.957,0,0,1,4.7,4.893c-.164.805-2.866,4.2-3.579,4.832a3.93,3.93,0,0,1-6.049-4.866,26.233,26.233,0,0,1,3.806-4.408,3.315,3.315,0,0,1,1.114-.45Z" transform="translate(-250.08 -227.052)"/>
    </g>
  </g>
</svg>
