<svg id="Layer_1" data-name="Layer 1" xmlns="http://www.w3.org/2000/svg" width="92.187" height="100" viewBox="0 0 92.187 100">
  <g id="Group_1825" data-name="Group 1825" transform="translate(0 0)">
    <path id="Path_204" data-name="Path 204" d="M59.627,99.939a16.425,16.425,0,0,1-2.105-.53,12.088,12.088,0,0,1-8.265-11.158l-18.82-.025c-11.925-2.253-12.163-11.685-8.45-21.318,2.48-6.435,8.035-12.93,8.54-19.763.21-2.848-.168-5.925-.005-8.788C31.339,23.947,42.509,11.522,56.9,9.687,57.492,6.4,55.7-.1,61.092,0c5.02.093,3.628,6.28,3.835,9.55C77.41,11.2,88.407,21.1,90.815,33.54c1.208,6.24-.317,12.623,1.813,18.488,1.063,2.925,4.335,6.77.338,9.113-3.528,2.068-5.473-1.433-6.723-4.1-4.858-10.355.073-19.833-6.3-29.616-10.36-15.908-34.873-12.5-40.528,5.565-2.03,6.488-.223,12.945-1.948,19.52-1.64,6.253-5.978,11.338-8.255,17.315-1.355,3.555-3.69,10.093,2.193,10.6l59.571,0a3.906,3.906,0,0,0,3.563-3.268c.2-1.245-.27-2.078.148-3.368a3.93,3.93,0,0,1,7.385.033c2.12,6.475-3.813,14.165-10.515,14.405H72.712c.358,5.61-4.653,11.093-10.153,11.713a18.2,18.2,0,0,1-2.93,0ZM64.9,88.229h-7.81C57.594,93.354,64.687,93.474,64.9,88.229Z" transform="translate(-14.904 0.004)"/>
    <path id="Path_205" data-name="Path 205" d="M14.016,31.338a3.952,3.952,0,0,1,4.035,1.925c1.68,3.253-1.06,4.94-2.7,7.218A39.565,39.565,0,0,0,8.016,59.3c-.178,1.63.053,4.3-.55,5.7A3.97,3.97,0,0,1,.3,64.857c-.623-1.61-.118-5.825.123-7.68a47.234,47.234,0,0,1,8.68-21.383c1.113-1.5,3.02-4.15,4.913-4.458Z" transform="translate(-0.004 -23.467)"/>
    <path id="Path_206" data-name="Path 206" d="M297.708,31.366a4.463,4.463,0,0,1,3.165.843,31.043,31.043,0,0,1,3.02,3.618A47.46,47.46,0,0,1,313,61.857c.052,2.655-.6,5.33-3.818,5.39-4.7.088-3.863-4.838-4.2-7.918a39.555,39.555,0,0,0-7.338-18.818c-1.638-2.28-4.375-3.963-2.7-7.218a3.869,3.869,0,0,1,2.76-1.923Z" transform="translate(-220.815 -23.495)"/>
  </g>
</svg>
