<svg id="Layer_1" data-name="Layer 1" xmlns="http://www.w3.org/2000/svg" width="99.997" height="100" viewBox="0 0 99.997 100">
  <g id="Group_1826" data-name="Group 1826">
    <path id="Path_207" data-name="Path 207" d="M10.162,99.765A12.2,12.2,0,0,1,.01,89.142L0,10.812A11.964,11.964,0,0,1,10.655.01L50.889,0l1.592.36C61.138,8.47,69.643,16.955,77.77,25.592a5.486,5.486,0,0,1,.36,1.587,48.762,48.762,0,0,1-.008,7.022,3.91,3.91,0,0,1-6.937,2.05,6.433,6.433,0,0,1-.875-1.66v-3.41c-7.35-.537-15.745,2.145-20.977-4.5-.9-1.15-2.457-4.327-2.457-5.732V7.8H11.042c-1.5,0-3.385,2.255-3.23,3.792L7.87,88.7a3.837,3.837,0,0,0,3.387,3.245c5.615.672,12.432-.495,18.149.015a3.956,3.956,0,0,1,.675,7.8c-6.265-.547-13.807.732-19.919,0ZM64.648,23.387l-9.96-9.937v6.722c0,1.217,2,3.215,3.222,3.215Z"/>
    <path id="Path_208" data-name="Path 208" d="M223.626,178.629v1.752l-1.362,2.245c-11.482,10.545-21.932,23.057-33.492,33.414a25.023,25.023,0,0,1-3.877,2.95c-4.66,2.71-10.067,2.86-15.17,4.252h-1.757a4.423,4.423,0,0,1-3.13-3.985c.045-2.117,1.585-8.585,2.207-10.865a20.214,20.214,0,0,1,4.43-8.245l34.674-34.574a3.9,3.9,0,0,1,4.957-.085c3.4,3.88,8.227,7.447,11.445,11.38a10.574,10.574,0,0,1,1.072,1.755Zm-49.8,35.654c3.152-.36,6.357-1.07,8.79-3.212L213.874,179.9l.1-.492-5.285-5.26L176.76,206c-1.95,2.425-2.435,5.295-2.932,8.275Z" transform="translate(-123.629 -123.483)"/>
    <path id="Path_209" data-name="Path 209" d="M65.807,149.72l39.981-.05a3.906,3.906,0,0,1,0,7.79H66.147a3.9,3.9,0,0,1-.342-7.74Z" transform="translate(-46.902 -112.254)"/>
    <path id="Path_210" data-name="Path 210" d="M65.814,212.115l32.742-.035a3.923,3.923,0,0,1,0,7.76l-32.4.015A3.9,3.9,0,0,1,65.814,212.115Z" transform="translate(-46.91 -159.061)"/>
    <path id="Path_211" data-name="Path 211" d="M65.827,273.757c5.57.443,12.665-.79,18.06,0,4.39.642,4.345,7.18-.165,7.72-5.5.66-12.26-.4-17.895-.03a3.9,3.9,0,0,1,0-7.692Z" transform="translate(-46.922 -205.116)"/>
  </g>
</svg>
