<svg id="Layer_1" data-name="Layer 1" xmlns="http://www.w3.org/2000/svg" width="99.757" height="100" viewBox="0 0 99.757 100">
  <path id="Path_225" data-name="Path 225" d="M59.424,0C60.542.641,61,.893,61.467,2.15c1.05,2.813,1.274,6.417,2.292,9.308l3.529,1.364,8.178-4.871a3.191,3.191,0,0,1,3.262.524c3.611,4.285,9.046,8.18,12.477,12.475a3.125,3.125,0,0,1,.643,3.187l-4.893,8.35,1.317,3.434c.267.4,8.1,1.918,9.355,2.387s1.506.925,2.15,2.043v19.1c-.641,1.117-.893,1.574-2.15,2.043-1.342.5-8.966,1.955-9.308,2.292l-1.364,3.529,4.936,8.307a3.433,3.433,0,0,1-.589,3.132c-4.285,3.611-8.18,9.046-12.475,12.475a3.351,3.351,0,0,1-3.23.686L67.29,86.983,63.856,88.3c-.4.267-1.923,8.115-2.387,9.355a2.96,2.96,0,0,1-2.038,2.058c-5.868-.267-12.672.668-18.436.1a2.931,2.931,0,0,1-2.713-2.157c-1.05-2.813-1.274-6.417-2.292-9.308l-3.4-1.364-8.44,4.936a3.348,3.348,0,0,1-3.23-.686C16.63,87.8,12.734,82.369,8.45,78.76A3.2,3.2,0,0,1,7.926,75.5L12.8,67.32l-1.364-3.529c-2.873-1.02-6.514-1.249-9.308-2.292A2.96,2.96,0,0,1,.067,59.462L.02,40.495a3.007,3.007,0,0,1,2.1-2.185c1.195-.446,9.091-1.983,9.355-2.387L12.8,32.489,7.869,24.174a3.186,3.186,0,0,1,.678-3.225c3.4-4.287,8.886-8.193,12.477-12.475a3.2,3.2,0,0,1,3.262-.524l8.178,4.871,3.529-1.364c1.015-2.891,1.242-6.494,2.292-9.308C38.754.9,39.211.643,40.328,0h19.1Zm2.145,82.845c2.689-.347,4.529-2.978,7.345-1.788,1.225.516,6.819,4.479,7.527,4.3l8.906-9.033c.027-1.227-4.534-6.574-4.679-8.587-.1-1.374,1.267-3.621,1.853-4.971.97-2.225.524-3.454,3.217-4.384,1.085-.374,7.861-1.691,8.1-2.035L93.9,43.59l-.3-.279c-2.539-.823-5.7-1.06-8.158-1.98-2.342-.878-2.065-2.332-2.92-4.292-.586-1.344-1.953-3.6-1.853-4.971.135-1.858,4.9-7.806,4.659-8.736l-8.754-8.819c-.324-.2-.569,0-.848.125-2.008.86-6.193,4.337-8.018,4.467-1.372.1-3.624-1.267-4.968-1.856-2.23-.975-3.464-.546-4.384-3.217-.379-1.1-1.691-7.861-2.035-8.1H43.428c-1.052,2.624-1.145,6.12-2.232,8.684-.858,2.02-2.447,1.88-4.185,2.636-2.025.883-3.943,2.439-6.178,1.494-1.334-.564-6.589-4.337-7.38-4.317L14.42,23.331c-.239.93,4.524,6.876,4.659,8.736.1,1.372-1.267,3.629-1.856,4.968-.806,1.846-.631,3.394-2.776,4.242-2.487.98-5.714,1.21-8.3,2.03l-.332.449L5.9,56.344c.354.5,8.068,1.544,9.562,2.718,1.07.84,1.24,2.506,1.758,3.7.589,1.349,1.953,3.6,1.853,4.971-.132,1.841-3.614,6-4.467,8.018a1.418,1.418,0,0,0-.212.569L23.3,85.352c.708.182,6.3-3.778,7.527-4.3,2.813-1.19,4.656,1.442,7.345,1.788v-9.26C21.546,64.971,18.3,42.567,32.614,30.01c2.412-2.117,9.978-7.816,11.393-2.22L44.061,48.2l5.749,4,5.873-4,.037-20.236c1.057-4.973,6.3-1.649,8.876.092,16.852,11.383,14.812,36.4-3.028,45.52v9.26Zm0-49.708V50.583a7.054,7.054,0,0,1-.985,1.549,76.945,76.945,0,0,1-8.9,5.918c-1.6.865-2.03.865-3.626,0a76.732,76.732,0,0,1-8.9-5.918,7,7,0,0,1-.985-1.549V33.138a20.445,20.445,0,1,0,23.391,0Zm-5.848,42.5a30.165,30.165,0,0,1-11.7,0V93.956h11.7V75.633Z" transform="translate(-0.02)"/>
</svg>
