<svg id="Layer_1" data-name="Layer 1" xmlns="http://www.w3.org/2000/svg" width="120.95" height="100" viewBox="0 0 120.95 100">
  <g id="Group_1830" data-name="Group 1830" transform="translate(0 0)">
    <path id="Path_226" data-name="Path 226" d="M.247,191.39c-.768-6.788.575-14.989,0-21.925C3.1,153.472,16.518,152.8,30.007,153.659a34.352,34.352,0,0,1,4.2.677,18.454,18.454,0,0,1,13.689-9.6c7.968.375,16.543-.6,24.438-.039a18.247,18.247,0,0,1,14.354,9.637,33.784,33.784,0,0,1,4.2-.677c13.048-.825,28.732.178,29.769,16.858a174.1,174.1,0,0,1,0,20.06,10.81,10.81,0,0,1-9.089,10.22l-102.034.024a10.992,10.992,0,0,1-9.292-9.428Zm81.131,2.359V160.623c0-3.9-5.57-8.92-9.516-8.851-7.366.423-15.3-.535-22.594,0a10.9,10.9,0,0,0-8.149,4.8,18.641,18.641,0,0,0-1.6,4.055v33.125H81.381Zm-48.913,0V161.331a5.2,5.2,0,0,0-2.458-.6,101.419,101.419,0,0,0-12.013,0c-15.491,1.061-9.507,19.286-10.7,29.609-.278,1.107,1.536,3.408,2.479,3.408H32.465Zm55.97,0h22.693c.943,0,2.758-2.3,2.479-3.408-1.194-10.323,4.79-28.547-10.7-29.609a101.42,101.42,0,0,0-12.013,0c-.692.051-1.364.275-2.062.29l-.4.308Z" transform="translate(-0.003 -100.821)"/>
    <path id="Path_227" data-name="Path 227" d="M149.263.1c18.971-1.79,30.713,20.026,18.276,34.592-10.988,12.869-32.3,7.68-36.219-8.727C128.441,13.929,136.826,1.274,149.263.1Zm.466,7.07c-17.066,1.941-15.016,28.853,2.755,27.752,18.5-1.146,16.616-29.954-2.755-27.752Z" transform="translate(-91.216 0.002)"/>
    <path id="Path_228" data-name="Path 228" d="M39.955,64.74C58.733,62.6,64.838,87.479,48.794,94.584c-13.386,5.927-26.754-7.922-20.586-21.112,2-4.285,7.009-8.191,11.75-8.733Zm.7,7.064c-9.724,1.518-8.763,17.29,1.814,17.163C54.294,88.824,53.468,69.8,40.651,71.8Z" transform="translate(-18.599 -45.072)"/>
    <path id="Path_229" data-name="Path 229" d="M282.584,64.747c18.8-2.12,24.846,22.881,8.675,29.917-13.15,5.724-26.367-7.714-20.583-20.873,1.981-4.508,6.976-8.491,11.908-9.047Zm.7,7.064c-10.777,1.575-8.055,19.727,3.831,16.809C297.28,86.125,294.8,70.126,283.28,71.81Z" transform="translate(-187.856 -45.079)"/>
  </g>
</svg>
