<svg id="Layer_1" data-name="Layer 1" xmlns="http://www.w3.org/2000/svg" width="98.828" height="98.541" viewBox="0 0 98.828 98.541">
  <g id="Group_1831" data-name="Group 1831" transform="translate(0 0)">
    <path id="Path_230" data-name="Path 230" d="M103.162,58.635a8.837,8.837,0,0,1,4.791,1.117c7.378,5.006,16.86,8.731,24.008,13.861,4.62,3.313,4.551,7.276,2.078,11.968-4.089,7.753-9.542,12.907-18.832,13.223-1.616.852-.264,2.036.168,3.182,2.147,5.717,2.234,11.15-.5,16.687-2.945,5.969-6.587,12.119-14.251,8.349-8.166-4.015-16.116-9.838-24.267-14.031-4.119-3.279-4.3-6.869-2.033-11.368C78.336,93.67,83.945,88.3,93.373,87.97c1.616-.852.264-2.036-.168-3.182-2.241-5.967-2.211-11.395.714-17.117,2.011-3.938,4.334-8.576,9.248-9.035Zm.62,6.864a2.2,2.2,0,0,0-1.1.828c-1.974,2.424-4.25,7.486-4.23,10.624.035,5.515,4.734,8.605,1.351,14.226-2.681,4.457-6.639,3.091-10.7,4.573-4.324,1.576-7.249,5.574-9.048,9.665-.222.509-.506.946-.205,1.51l24.981,14.4c.376-.007.83-.581,1.055-.87,1.989-2.562,4.242-7.358,4.222-10.612-.032-5.188-4.386-8.509-1.692-13.725,2.56-4.956,7-3.55,11.215-5.139s7.138-5.611,8.89-9.609c.222-.509.509-.946.205-1.51L103.784,65.5Z" transform="translate(-54.867 -44.128)"/>
    <path id="Path_231" data-name="Path 231" d="M79.994,218.389h-5.06a7.147,7.147,0,0,1-1.836-.961,3.394,3.394,0,0,1,2.043-5.925c4.366-.41,9.359.326,13.794,0a3.507,3.507,0,0,1,2.91,3.328,97.79,97.79,0,0,1,0,13.127,3.456,3.456,0,0,1-5.5,2.678,4.417,4.417,0,0,1-1.4-2.043v-5.265a52.481,52.481,0,0,1-18.837,12.037c-26.224,9.307-55.235-4.872-63.685-31.215-1.359-4.235-2.844-11.37-2.318-15.746a3.465,3.465,0,0,1,5.463-2.219c1.962,1.45,1.235,3.891,1.423,5.888,1.349,14.459,9.248,27.109,22.041,34.088a42.669,42.669,0,0,0,50.958-7.773Z" transform="translate(0 -139.688)"/>
    <path id="Path_232" data-name="Path 232" d="M39.49,19.821h5.06a7.147,7.147,0,0,1,1.836.961,3.394,3.394,0,0,1-2.043,5.925c-4.366.41-9.359-.326-13.794,0a3.507,3.507,0,0,1-2.91-3.328,97.789,97.789,0,0,1,0-13.127,3.456,3.456,0,0,1,5.5-2.678,4.417,4.417,0,0,1,1.4,2.043V14.88A49.982,49.982,0,0,1,83.459,1.832a49.44,49.44,0,0,1,34.983,37.505c.6,2.948,1.287,7.526.934,10.468a3.465,3.465,0,0,1-5.463,2.219c-1.962-1.45-1.235-3.891-1.423-5.888C111.16,31.9,103.412,19.26,90.878,12.263A42.72,42.72,0,0,0,39.49,19.821Z" transform="translate(-20.644 -0.001)"/>
  </g>
</svg>
